<svg width="342" height="350" viewBox="0 0 342 350" fill="none" xmlns="http://www.w3.org/2000/svg">
<path fill-rule="evenodd" clip-rule="evenodd" d="M303.201 182.96L303.531 176.853C303.599 175.592 303.633 174.322 303.633 173.045C303.633 130.944 265.977 96.8141 219.527 96.8141C187.727 96.8141 160.026 112.804 145.717 136.463L138.993 147.581L126.19 142.473C120.123 140.053 113.405 138.703 106.297 138.703C78.9903 138.703 56.8533 158.767 56.8533 183.517C56.8533 183.759 56.8558 184.013 56.8604 184.282L57.0243 193.765L47.3232 197.32C28.3243 204.282 15.2587 221.144 15.2587 240.452C15.2587 266.146 38.2398 286.975 66.5881 286.975H80.1083V176.336H267.027V286.817C300.414 284.602 326.741 259.349 326.741 228.523C326.741 212.291 319.532 197.811 307.964 187.291L303.201 182.96ZM267.027 300.677C265.447 300.762 263.855 300.805 262.251 300.805H251.769V190.166H95.367V300.805H66.5881C29.8126 300.805 0 273.784 0 240.452C0 215.389 16.9621 193.528 41.6036 184.498C41.598 184.172 41.5946 183.845 41.5946 183.517C41.5946 151.129 70.5632 124.873 106.297 124.873C115.561 124.873 124.37 126.637 132.337 129.815C149.217 101.906 181.933 82.9842 219.527 82.9842C274.404 82.9842 318.892 123.306 318.892 173.045C318.892 174.548 318.851 176.043 318.771 177.528C333.061 190.523 342 208.469 342 228.523C342 266.99 308.848 298.438 267.027 300.677Z" fill="#4343F0"/>
<path d="M236.518 66.8076C230.969 66.0851 225.296 65.709 219.527 65.709C180.415 65.7091 145.754 82.8975 124.204 109.34C119.794 108.469 115.26 107.913 110.633 107.698V53.5908H70.5795L110.633 0H236.518V66.8076Z" fill="#4343F0"/>
<path d="M236.506 331.917H254.563C259.336 331.917 263.207 335.787 263.207 340.561C263.207 345.335 259.336 349.204 254.563 349.204H92.5607C87.7869 349.204 83.9171 345.335 83.9171 340.561C83.9173 335.787 87.7871 331.917 92.5607 331.917H110.621V273.14H236.506V331.917Z" fill="#4343F0"/>
<path fill-rule="evenodd" clip-rule="evenodd" d="M251.773 224.718L95.3716 224.718L95.3716 210.888L251.773 210.888L251.773 224.718Z" fill="#4343F0"/>
<path fill-rule="evenodd" clip-rule="evenodd" d="M251.773 259.335L95.3716 259.335L95.3716 245.505L251.773 245.505L251.773 259.335Z" fill="#4343F0"/>
<path fill-rule="evenodd" clip-rule="evenodd" d="M236.514 221.276L225.075 221.276L225.075 214.364L236.514 214.364L236.514 221.276Z" fill="#4343F0"/>
<path fill-rule="evenodd" clip-rule="evenodd" d="M236.512 186.692L225.073 186.692L225.073 179.78L236.512 179.78L236.512 186.692Z" fill="#4343F0"/>
<path fill-rule="evenodd" clip-rule="evenodd" d="M236.512 255.839L225.073 255.839L225.073 248.928L236.512 248.928L236.512 255.839Z" fill="#4343F0"/>
</svg>
