<svg width="3416" height="350" viewBox="0 0 3416 350" fill="none" xmlns="http://www.w3.org/2000/svg">
<path d="M542.898 297.978C521.128 297.978 502.415 293.525 486.762 284.619C471.199 275.622 459.189 263.118 450.732 247.104C442.366 231.001 438.182 212.334 438.182 191.103C438.182 169.782 442.366 151.115 450.732 135.102C459.189 118.998 471.199 106.494 486.762 97.5874C502.415 88.5912 521.128 84.0931 542.898 84.0931C564.669 84.0931 583.336 88.5912 598.9 97.5874C614.553 106.494 626.563 118.998 634.93 135.102C643.386 151.115 647.614 169.782 647.614 191.103C647.614 212.334 643.386 231.001 634.93 247.104C626.563 263.118 614.553 275.622 598.9 284.619C583.336 293.525 564.669 297.978 542.898 297.978ZM543.303 248.184C551.22 248.184 557.922 245.755 563.41 240.897C568.897 236.039 573.081 229.292 575.959 220.656C578.928 212.019 580.413 202.033 580.413 190.698C580.413 179.183 578.928 169.107 575.959 160.471C573.081 151.835 568.897 145.087 563.41 140.229C557.922 135.372 551.22 132.943 543.303 132.943C535.117 132.943 528.19 135.372 522.522 140.229C516.944 145.087 512.671 151.835 509.702 160.471C506.824 169.107 505.384 179.183 505.384 190.698C505.384 202.033 506.824 212.019 509.702 220.656C512.671 229.292 516.944 236.039 522.522 240.897C528.19 245.755 535.117 248.184 543.303 248.184ZM755.005 175.854V294.065H689.018V86.792H751.766V124.846H754.06C758.648 112.161 766.475 102.22 777.54 95.0235C788.606 87.7366 801.785 84.0931 817.079 84.0931C831.652 84.0931 844.292 87.3767 854.998 93.944C865.793 100.421 874.16 109.507 880.097 121.202C886.125 132.808 889.093 146.392 889.003 161.955V294.065H823.016V174.91C823.106 163.395 820.182 154.399 814.245 147.921C808.397 141.444 800.256 138.205 789.82 138.205C782.893 138.205 776.776 139.735 771.468 142.793C766.25 145.762 762.202 150.035 759.323 155.613C756.534 161.191 755.095 167.938 755.005 175.854ZM1034.35 297.978C1012.67 297.978 993.954 293.705 978.21 285.158C962.557 276.522 950.502 264.242 942.045 248.319C933.679 232.306 929.496 213.279 929.496 191.238C929.496 169.827 933.724 151.115 942.18 135.102C950.637 118.998 962.557 106.494 977.94 97.5874C993.324 88.5912 1011.45 84.0931 1032.32 84.0931C1047.08 84.0931 1060.57 86.3872 1072.81 90.9752C1085.04 95.5633 1095.61 102.355 1104.52 111.352C1113.42 120.348 1120.35 131.458 1125.3 144.683C1130.25 157.817 1132.72 172.886 1132.72 189.889V206.352H952.571V168.028H1071.32C1071.23 161.011 1069.57 154.758 1066.33 149.271C1063.09 143.783 1058.64 139.51 1052.97 136.451C1047.39 133.302 1040.96 131.728 1033.67 131.728C1026.29 131.728 1019.68 133.392 1013.84 136.721C1007.99 139.96 1003.35 144.413 999.936 150.08C996.517 155.658 994.718 162 994.538 169.107V208.106C994.538 216.562 996.203 223.984 999.531 230.372C1002.86 236.669 1007.58 241.572 1013.7 245.08C1019.82 248.589 1027.1 250.343 1035.56 250.343C1041.41 250.343 1046.72 249.533 1051.48 247.914C1056.25 246.295 1060.35 243.911 1063.76 240.762C1067.18 237.613 1069.75 233.745 1071.46 229.157L1132.05 230.911C1129.53 244.496 1123.99 256.326 1115.45 266.401C1106.99 276.387 1095.88 284.169 1082.12 289.747C1068.35 295.234 1052.43 297.978 1034.35 297.978ZM1240.01 175.854V294.065H1174.02V86.792H1236.77V124.846H1239.06C1243.65 112.161 1251.48 102.22 1262.54 95.0235C1273.61 87.7366 1286.79 84.0931 1302.08 84.0931C1316.66 84.0931 1329.3 87.3767 1340 93.944C1350.8 100.421 1359.16 109.507 1365.1 121.202C1371.13 132.808 1374.1 146.392 1374.01 161.955V294.065H1308.02V174.91C1308.11 163.395 1305.19 154.399 1299.25 147.921C1293.4 141.444 1285.26 138.205 1274.82 138.205C1267.9 138.205 1261.78 139.735 1256.47 142.793C1251.25 145.762 1247.21 150.035 1244.33 155.613C1241.54 161.191 1240.1 167.938 1240.01 175.854ZM1519.35 297.978C1497.67 297.978 1478.96 293.705 1463.21 285.158C1447.56 276.522 1435.51 264.242 1427.05 248.319C1418.68 232.306 1414.5 213.279 1414.5 191.238C1414.5 169.827 1418.73 151.115 1427.19 135.102C1435.64 118.998 1447.56 106.494 1462.94 97.5874C1478.33 88.5912 1496.46 84.0931 1517.33 84.0931C1532.08 84.0931 1545.58 86.3872 1557.81 90.9752C1570.04 95.5633 1580.62 102.355 1589.52 111.352C1598.43 120.348 1605.36 131.458 1610.3 144.683C1615.25 157.817 1617.72 172.886 1617.72 189.889V206.352H1437.58V168.028H1556.33C1556.24 161.011 1554.57 154.758 1551.33 149.271C1548.09 143.783 1543.64 139.51 1537.97 136.451C1532.4 133.302 1525.96 131.728 1518.68 131.728C1511.3 131.728 1504.69 133.392 1498.84 136.721C1492.99 139.96 1488.36 144.413 1484.94 150.08C1481.52 155.658 1479.72 162 1479.54 169.107V208.106C1479.54 216.562 1481.21 223.984 1484.54 230.372C1487.86 236.669 1492.59 241.572 1498.7 245.08C1504.82 248.589 1512.11 250.343 1520.57 250.343C1526.41 250.343 1531.72 249.533 1536.49 247.914C1541.26 246.295 1545.35 243.911 1548.77 240.762C1552.19 237.613 1554.75 233.745 1556.46 229.157L1617.05 230.911C1614.53 244.496 1609 256.326 1600.45 266.401C1592 276.387 1580.89 284.169 1567.12 289.747C1553.36 295.234 1537.43 297.978 1519.35 297.978ZM1776.02 86.792V135.372H1645.26V86.792H1776.02ZM1672.66 37.1329H1738.64V228.887C1738.64 232.935 1739.27 236.219 1740.53 238.738C1741.88 241.167 1743.82 242.921 1746.34 244.001C1748.85 244.99 1751.87 245.485 1755.38 245.485C1757.9 245.485 1760.55 245.26 1763.34 244.81C1766.22 244.271 1768.38 243.821 1769.82 243.461L1779.8 291.096C1776.65 291.996 1772.2 293.12 1766.44 294.47C1760.77 295.819 1753.98 296.674 1746.07 297.033C1730.59 297.753 1717.32 295.954 1706.26 291.636C1695.28 287.228 1686.87 280.39 1681.02 271.124C1675.26 261.858 1672.48 250.208 1672.66 236.174V37.1329ZM2087.49 150.08L2026.9 151.7C2026.27 147.381 2024.56 143.558 2021.77 140.229C2018.98 136.811 2015.34 134.157 2010.84 132.268C2006.43 130.289 2001.31 129.299 1995.46 129.299C1987.81 129.299 1981.29 130.828 1975.89 133.887C1970.58 136.946 1967.98 141.084 1968.07 146.302C1967.98 150.35 1969.59 153.859 1972.92 156.827C1976.34 159.796 1982.41 162.18 1991.14 163.979L2031.08 171.536C2051.78 175.495 2067.16 182.062 2077.23 191.238C2087.4 200.414 2092.53 212.559 2092.62 227.673C2092.53 241.887 2088.3 254.256 2079.93 264.782C2071.66 275.308 2060.32 283.494 2045.93 289.342C2031.53 295.099 2015.07 297.978 1996.54 297.978C1966.94 297.978 1943.6 291.906 1926.5 279.761C1909.5 267.526 1899.78 251.153 1897.36 230.641L1962.53 229.022C1963.97 236.579 1967.71 242.336 1973.73 246.295C1979.76 250.253 1987.45 252.232 1996.81 252.232C2005.26 252.232 2012.15 250.658 2017.45 247.509C2022.76 244.361 2025.46 240.177 2025.55 234.96C2025.46 230.282 2023.39 226.548 2019.34 223.759C2015.3 220.881 2008.95 218.631 2000.32 217.012L1964.15 210.13C1943.37 206.352 1927.9 199.38 1917.73 189.214C1907.57 178.958 1902.53 165.914 1902.62 150.08C1902.53 136.226 1906.22 124.396 1913.68 114.59C1921.15 104.694 1931.77 97.1376 1945.53 91.9198C1959.29 86.702 1975.53 84.0931 1994.24 84.0931C2022.31 84.0931 2044.44 89.9856 2060.64 101.771C2076.83 113.466 2085.78 129.569 2087.49 150.08ZM2229.59 297.978C2207.91 297.978 2189.2 293.705 2173.46 285.158C2157.81 276.522 2145.75 264.242 2137.29 248.319C2128.93 232.306 2124.74 213.279 2124.74 191.238C2124.74 169.827 2128.97 151.115 2137.43 135.102C2145.89 118.998 2157.81 106.494 2173.19 97.5874C2188.57 88.5912 2206.7 84.0931 2227.57 84.0931C2242.32 84.0931 2255.82 86.3872 2268.05 90.9752C2280.29 95.5633 2290.86 102.355 2299.77 111.352C2308.67 120.348 2315.6 131.458 2320.55 144.683C2325.49 157.817 2327.97 172.886 2327.97 189.889V206.352H2147.82V168.028H2266.57C2266.48 161.011 2264.82 154.758 2261.58 149.271C2258.34 143.783 2253.88 139.51 2248.22 136.451C2242.64 133.302 2236.21 131.728 2228.92 131.728C2221.54 131.728 2214.93 133.392 2209.08 136.721C2203.24 139.96 2198.6 144.413 2195.18 150.08C2191.77 155.658 2189.97 162 2189.79 169.107V208.106C2189.79 216.562 2191.45 223.984 2194.78 230.372C2198.11 236.669 2202.83 241.572 2208.95 245.08C2215.07 248.589 2222.35 250.343 2230.81 250.343C2236.66 250.343 2241.96 249.533 2246.73 247.914C2251.5 246.295 2255.59 243.911 2259.01 240.762C2262.43 237.613 2265 233.745 2266.7 229.157L2327.29 230.911C2324.77 244.496 2319.24 256.326 2310.7 266.401C2302.24 276.387 2291.13 284.169 2277.36 289.747C2263.6 295.234 2247.68 297.978 2229.59 297.978ZM2369.27 294.065V86.792H2433.37V124.576H2435.53C2439.31 110.902 2445.47 100.736 2454.01 94.0789C2462.56 87.3318 2472.5 83.9582 2483.84 83.9582C2486.9 83.9582 2490.04 84.1831 2493.28 84.6329C2496.52 84.9927 2499.54 85.5775 2502.32 86.3872V143.738C2499.18 142.658 2495.04 141.804 2489.91 141.174C2484.87 140.544 2480.37 140.229 2476.42 140.229C2468.59 140.229 2461.53 141.984 2455.23 145.492C2449.02 148.911 2444.12 153.724 2440.52 159.931C2437.01 166.049 2435.26 173.246 2435.26 181.522V294.065H2369.27ZM2744.19 86.792L2673.07 294.065H2597.5L2526.52 86.792H2596.02L2634.21 229.562H2636.37L2674.69 86.792H2744.19ZM2867.3 297.978C2845.62 297.978 2826.9 293.705 2811.16 285.158C2795.51 276.522 2783.45 264.242 2775 248.319C2766.63 232.306 2762.45 213.279 2762.45 191.238C2762.45 169.827 2766.67 151.115 2775.13 135.102C2783.59 118.998 2795.51 106.494 2810.89 97.5874C2826.27 88.5912 2844.4 84.0931 2865.27 84.0931C2880.03 84.0931 2893.52 86.3872 2905.76 90.9752C2917.99 95.5633 2928.56 102.355 2937.47 111.352C2946.37 120.348 2953.3 131.458 2958.25 144.683C2963.2 157.817 2965.67 172.886 2965.67 189.889V206.352H2785.52V168.028H2904.27C2904.18 161.011 2902.52 154.758 2899.28 149.271C2896.04 143.783 2891.59 139.51 2885.92 136.451C2880.34 133.302 2873.91 131.728 2866.62 131.728C2859.25 131.728 2852.63 133.392 2846.79 136.721C2840.94 139.96 2836.31 144.413 2832.89 150.08C2829.47 155.658 2827.67 162 2827.49 169.107V208.106C2827.49 216.562 2829.15 223.984 2832.48 230.372C2835.81 236.669 2840.53 241.572 2846.65 245.08C2852.77 248.589 2860.06 250.343 2868.51 250.343C2874.36 250.343 2879.67 249.533 2884.44 247.914C2889.2 246.295 2893.3 243.911 2896.72 240.762C2900.13 237.613 2902.7 233.745 2904.41 229.157L2965 230.911C2962.48 244.496 2956.94 256.326 2948.4 266.401C2939.94 276.387 2928.83 284.169 2915.07 289.747C2901.3 295.234 2885.38 297.978 2867.3 297.978ZM3006.97 294.065V86.792H3071.07V124.576H3073.23C3077.01 110.902 3083.17 100.736 3091.72 94.0789C3100.26 87.3318 3110.2 83.9582 3121.54 83.9582C3124.6 83.9582 3127.75 84.1831 3130.99 84.6329C3134.22 84.9927 3137.24 85.5775 3140.03 86.3872V143.738C3136.88 142.658 3132.74 141.804 3127.61 141.174C3122.57 140.544 3118.08 140.229 3114.12 140.229C3106.29 140.229 3099.23 141.984 3092.93 145.492C3086.72 148.911 3081.82 153.724 3078.22 159.931C3074.71 166.049 3072.96 173.246 3072.96 181.522V294.065H3006.97ZM3355.47 150.08L3294.88 151.7C3294.25 147.381 3292.54 143.558 3289.76 140.229C3286.97 136.811 3283.32 134.157 3278.83 132.268C3274.42 130.289 3269.29 129.299 3263.44 129.299C3255.79 129.299 3249.27 130.828 3243.87 133.887C3238.57 136.946 3235.96 141.084 3236.05 146.302C3235.96 150.35 3237.58 153.859 3240.91 156.827C3244.32 159.796 3250.4 162.18 3259.12 163.979L3299.07 171.536C3319.76 175.495 3335.14 182.062 3345.22 191.238C3355.38 200.414 3360.51 212.559 3360.6 227.673C3360.51 241.887 3356.28 254.256 3347.92 264.782C3339.64 275.308 3328.3 283.494 3313.91 289.342C3299.52 295.099 3283.05 297.978 3264.52 297.978C3234.92 297.978 3211.58 291.906 3194.49 279.761C3177.48 267.526 3167.77 251.153 3165.34 230.641L3230.52 229.022C3231.95 236.579 3235.69 242.336 3241.72 246.295C3247.74 250.253 3255.44 252.232 3264.79 252.232C3273.25 252.232 3280.13 250.658 3285.44 247.509C3290.75 244.361 3293.44 240.177 3293.53 234.96C3293.44 230.282 3291.37 226.548 3287.33 223.759C3283.28 220.881 3276.94 218.631 3268.3 217.012L3232.13 210.13C3211.35 206.352 3195.88 199.38 3185.71 189.214C3175.55 178.958 3170.51 165.914 3170.6 150.08C3170.51 136.226 3174.2 124.396 3181.67 114.59C3189.13 104.694 3199.75 97.1376 3213.51 91.9198C3227.28 86.702 3243.52 84.0931 3262.23 84.0931C3290.3 84.0931 3312.43 89.9856 3328.62 101.771C3344.81 113.466 3353.76 129.569 3355.47 150.08Z" fill="#4343F0"/>
<path fill-rule="evenodd" clip-rule="evenodd" d="M303.201 182.96L303.531 176.853C303.599 175.592 303.633 174.322 303.633 173.045C303.633 130.944 265.977 96.8141 219.527 96.8141C187.727 96.8141 160.026 112.804 145.717 136.463L138.993 147.581L126.19 142.473C120.123 140.053 113.405 138.703 106.297 138.703C78.9903 138.703 56.8533 158.767 56.8533 183.517C56.8533 183.759 56.8558 184.013 56.8604 184.282L57.0243 193.765L47.3232 197.32C28.3243 204.282 15.2587 221.144 15.2587 240.452C15.2587 266.146 38.2398 286.975 66.5881 286.975H80.1083V176.336H267.027V286.817C300.414 284.602 326.741 259.349 326.741 228.523C326.741 212.291 319.532 197.811 307.964 187.291L303.201 182.96ZM267.027 300.677C265.447 300.762 263.855 300.805 262.251 300.805H251.769V190.166H95.367V300.805H66.5881C29.8126 300.805 0 273.784 0 240.452C0 215.389 16.9621 193.528 41.6036 184.498C41.598 184.172 41.5946 183.845 41.5946 183.517C41.5946 151.129 70.5632 124.873 106.297 124.873C115.561 124.873 124.37 126.637 132.337 129.815C149.217 101.906 181.933 82.9842 219.527 82.9842C274.404 82.9842 318.892 123.306 318.892 173.045C318.892 174.548 318.851 176.043 318.771 177.528C333.061 190.523 342 208.469 342 228.523C342 266.99 308.848 298.438 267.027 300.677Z" fill="#4343F0"/>
<path d="M236.518 66.8076C230.969 66.0851 225.296 65.709 219.527 65.709C180.415 65.7091 145.754 82.8975 124.204 109.34C119.794 108.469 115.26 107.913 110.633 107.698V53.5908H70.5795L110.633 0H236.518V66.8076Z" fill="#4343F0"/>
<path d="M236.506 331.917H254.563C259.336 331.917 263.207 335.787 263.207 340.561C263.207 345.335 259.336 349.204 254.563 349.204H92.5607C87.7869 349.204 83.9171 345.335 83.9171 340.561C83.9173 335.787 87.7871 331.917 92.5607 331.917H110.621V273.14H236.506V331.917Z" fill="#4343F0"/>
<path fill-rule="evenodd" clip-rule="evenodd" d="M251.773 224.718L95.3716 224.718L95.3716 210.888L251.773 210.888L251.773 224.718Z" fill="#4343F0"/>
<path fill-rule="evenodd" clip-rule="evenodd" d="M251.773 259.335L95.3716 259.335L95.3716 245.505L251.773 245.505L251.773 259.335Z" fill="#4343F0"/>
<path fill-rule="evenodd" clip-rule="evenodd" d="M236.514 221.276L225.075 221.276L225.075 214.364L236.514 214.364L236.514 221.276Z" fill="#4343F0"/>
<path fill-rule="evenodd" clip-rule="evenodd" d="M236.512 186.692L225.073 186.692L225.073 179.78L236.512 179.78L236.512 186.692Z" fill="#4343F0"/>
<path fill-rule="evenodd" clip-rule="evenodd" d="M236.512 255.839L225.073 255.839L225.073 248.928L236.512 248.928L236.512 255.839Z" fill="#4343F0"/>
</svg>
